# Blender v2.77 (sub 0) OBJ File: ''
# www.blender.org
mtllib untitled_0.mtl
o Cube
v 1.000000 -1.000000 -1.000000
v 1.000000 -1.000000 1.000000
v -1.000000 -1.000000 1.000000
v -1.000000 -1.000000 -1.000000
v 1.246824 0.595141 -1.361731
v 1.575927 1.369790 0.608819
v -1.000000 1.000000 1.000000
v -1.000000 1.000000 -1.000000
vn 0.0000 -1.0000 0.0000
vn 0.1047 0.9195 -0.3789
vn 0.9882 -0.1529 0.0000
vn -0.0000 0.0000 1.0000
vn -1.0000 -0.0000 -0.0000
vn -0.1589 0.0000 -0.9873
vn -0.1421 0.9899 0.0000
vn 0.9672 -0.2458 -0.0649
vn 0.1305 0.1305 0.9828
vn 0.0000 -0.2212 -0.9752
usemtl Material
s off
f 2//1 4//1 1//1
f 8//2 6//2 5//2
f 5//3 2//3 1//3
f 2//4 7//4 3//4
f 3//5 8//5 4//5
f 5//6 4//6 8//6
f 2//1 3//1 4//1
f 8//7 7//7 6//7
f 5//8 6//8 2//8
f 2//9 6//9 7//9
f 3//5 7//5 8//5
f 5//10 1//10 4//10
