# Blender v2.77 (sub 0) OBJ File: ''
# www.blender.org
mtllib untitled_0.mtl
o Cube
v 1.000000 -1.000000 -1.000000
v 1.000000 -1.000000 1.000000
v -1.000000 -1.000000 1.000000
v -1.000000 -1.000000 -1.000000
v 1.000000 1.000000 -0.999999
v 1.221177 1.142013 0.849772
v -1.000000 1.000000 1.000000
v -1.000000 1.000000 -1.000000
vn 0.0000 -1.0000 0.0000
vn -0.0683 0.9953 -0.0683
vn 1.0000 -0.0000 0.0000
vn -0.0000 0.0000 1.0000
vn -1.0000 -0.0000 -0.0000
vn 0.0000 0.0000 -1.0000
vn 0.0000 1.0000 -0.0000
vn 0.9879 -0.1097 -0.1097
vn 0.0633 0.0633 0.9960
usemtl Material
s off
f 2//1 4//1 1//1
f 5//2 7//2 6//2
f 5//3 2//3 1//3
f 2//4 7//4 3//4
f 3//5 8//5 4//5
f 1//6 8//6 5//6
f 2//1 3//1 4//1
f 5//7 8//7 7//7
f 5//8 6//8 2//8
f 2//9 6//9 7//9
f 3//5 7//5 8//5
f 1//6 4//6 8//6
