# Blender v2.77 (sub 0) OBJ File: ''
# www.blender.org
mtllib untitled_0.mtl
o Cube
v 1.000000 -1.000000 -1.000000
v 1.000000 -1.000000 1.000000
v -1.000000 -1.000000 1.000000
v -1.000000 -1.000000 -1.000000
v 1.000000 1.000000 -0.999999
v 1.532727 1.342052 0.638161
v -1.000000 1.000000 1.000000
v -1.000000 1.000000 -1.000000
vn 0.0000 -1.0000 0.0000
vn -0.1538 0.9761 -0.1538
vn 1.0000 -0.0000 0.0000
vn -0.0000 0.0000 1.0000
vn -1.0000 -0.0000 -0.0000
vn 0.0000 0.0000 -1.0000
vn 0.0000 1.0000 -0.0000
vn 0.9346 -0.2514 -0.2514
vn 0.1239 0.1239 0.9845
usemtl Material
s off
f 2//1 4//1 1//1
f 5//2 7//2 6//2
f 5//3 2//3 1//3
f 2//4 7//4 3//4
f 3//5 8//5 4//5
f 1//6 8//6 5//6
f 2//1 3//1 4//1
f 5//7 8//7 7//7
f 5//8 6//8 2//8
f 2//9 6//9 7//9
f 3//5 7//5 8//5
f 1//6 4//6 8//6
