# Blender v2.77 (sub 0) OBJ File: ''
# www.blender.org
mtllib untitled_0.mtl
o Cube
v 1.000000 -1.000000 -1.000000
v 1.000000 -1.000000 1.000000
v -1.000000 -1.000000 1.000000
v -1.000000 -1.000000 -1.000000
v 1.276901 0.545805 -1.405812
v 1.575927 1.369790 0.608819
v -1.000000 1.000000 1.000000
v -1.000000 1.000000 -1.000000
vn 0.0000 -1.0000 0.0000
vn 0.1127 0.9137 -0.3904
vn 0.9717 -0.2362 0.0000
vn -0.0000 0.0000 1.0000
vn -1.0000 -0.0000 -0.0000
vn -0.2124 -0.2124 -0.9538
vn -0.1421 0.9899 0.0000
vn 0.9790 -0.1928 -0.0664
vn 0.1305 0.1305 0.9828
vn 0.0000 0.0000 -1.0000
usemtl Material
s off
f 2//1 4//1 1//1
f 8//2 6//2 5//2
f 1//3 6//3 2//3
f 2//4 7//4 3//4
f 3//5 8//5 4//5
f 1//6 8//6 5//6
f 2//1 3//1 4//1
f 8//7 7//7 6//7
f 1//8 5//8 6//8
f 2//9 6//9 7//9
f 3//5 7//5 8//5
f 1//10 4//10 8//10
